<svg xmlns="http://www.w3.org/2000/svg" viewBox="0 0 120 28" fill="none" width="120" height="30"><path d="M72.5867 11.9332C71.823 10.5158 70.7353 9.37153 69.3158 8.50445C67.9002 7.64133 66.2047 7.20581 64.2254 7.20581C62.246 7.20581 60.4985 7.64925 58.987 8.52425C57.4755 9.40321 56.3158 10.6266 55.4961 12.1866C54.6763 13.7505 54.2725 15.5718 54.2725 17.6425C54.2725 19.7132 54.6963 21.5344 55.5401 23.0785C56.3838 24.6266 57.5474 25.8382 59.031 26.7013H59.023C60.5065 27.5644 62.214 27.9999 64.1374 27.9999H64.1294C65.7369 27.9999 67.1404 27.7149 68.3401 27.1685C69.5397 26.6221 70.5554 25.8619 71.3871 24.8998C72.2189 23.9417 72.8067 22.8608 73.1546 21.6492H69.1438C68.7719 22.5955 68.1641 23.3438 67.3204 23.8981C66.4806 24.4485 65.413 24.7256 64.1294 24.7256C63.0337 24.7256 62.038 24.4603 61.1383 23.9377C60.2426 23.4151 59.5268 22.6549 58.991 21.6532C58.5191 20.7822 58.2592 19.7369 58.1992 18.5056H73.6304C73.6824 18.1611 73.7144 17.8365 73.7144 17.5197V16.6566C73.7144 14.9224 73.3385 13.3466 72.5747 11.9292L72.5867 11.9332ZM58.2592 15.746C58.3672 14.8076 58.6111 13.9999 58.999 13.3189C59.5308 12.3845 60.2506 11.6758 61.1663 11.1888C62.074 10.7019 63.0777 10.4643 64.1734 10.4643C65.7249 10.4643 67.0245 10.9355 68.0642 11.8817C69.1078 12.824 69.6637 14.1147 69.7476 15.746H58.2592Z" fill="#08192B"></path><path d="M87.898 27.5921L95.5116 7.64136H91.3649L85.5187 23.7912L79.7565 7.64136H75.4858L83.1394 27.5921H87.898Z" fill="#08192B"></path><path d="M103.697 27.5883V12.4283C103.697 12.2184 103.785 12.0125 103.933 11.866C104.085 11.7156 104.289 11.6364 104.505 11.6364H115.937V27.5883H120L119.876 10.3219C119.864 8.84116 118.644 7.64941 117.133 7.64941H105.221L103.205 10.0171L103.101 7.64941H99.5784L99.6303 27.5923H103.693L103.697 27.5883Z" fill="#08192B"></path><path d="M30.3398 27.5921H34.4385V12.4321C34.4385 12.2222 34.5265 12.0164 34.6745 11.8699C34.8264 11.7194 35.0304 11.6402 35.2463 11.6402H46.6427V27.5921H50.7414L50.6175 10.3257C50.6055 8.84497 49.3859 7.65323 47.8743 7.65323H42.9879L35.9301 7.64531C35.9301 7.64531 34.4026 9.48637 34.3946 9.49429V0.00390625H30.3318V7.64927H30.3198L30.3318 12.63V27.5921H30.3398Z" fill="#08192B"></path><path d="M14.7529 23.9299L22.2105 16.5458V11.3631L10.2823 23.1736C9.79442 23.6567 9.13463 23.9259 8.44284 23.9259H5.0679C4.4081 23.9259 4.07621 23.134 4.54406 22.6748L22.2105 5.18269V0L1.18111 20.8218C-1.3421 23.3201 0.445342 27.5922 4.01223 27.5922H22.2065V23.9299H14.7489H14.7529Z" fill="#08192B"></path></svg>