<svg viewBox="0 0 1476 726" height="72" width="146" fill="#FF3800" xmlns="http://www.w3.org/2000/svg" aria-hidden="true" style="display: block;"><path d="M216.056 453H189.176V258.44H216.056V354.696C228.6 339.848 255.48 322.184 295.16 322.184C354.552 322.184 375.288 349.32 375.288 384.392V453H348.408V389.512C348.408 364.424 328.952 352.904 289.016 352.904C252.92 352.904 216.056 366.984 216.056 392.584V453ZM411.23 488.84L423.774 467.592C445.022 480.136 468.83 489.608 508.766 489.608C549.214 489.608 575.582 479.368 575.582 452.744V423.56C562.27 440.456 534.878 455.816 496.734 455.816C437.342 455.816 416.35 428.68 416.35 393.608V325H443.23V388.488C443.23 413.32 462.942 424.84 502.622 424.84C538.718 424.84 575.582 410.504 575.582 384.904V325H602.462V455.816C602.462 498.568 562.526 519.816 512.094 519.816C464.99 519.816 435.294 507.016 411.23 488.84ZM676.036 517H649.156V325H675.012L675.524 351.368C688.324 336.52 716.996 322.184 757.188 322.184C813.764 322.184 851.396 348.552 851.396 389C851.396 429.192 813.764 455.816 757.188 455.816C717.508 455.816 689.092 442.248 676.036 427.912V517ZM674.5 388.488C674.5 410.76 708.804 424.584 750.788 424.584C795.588 424.584 824.772 410.248 824.772 388.488C824.772 366.984 795.332 353.16 750.788 353.16C709.06 353.16 674.5 366.472 674.5 388.488ZM885.752 389.256C885.752 352.392 922.872 322.184 987.64 322.184C1053.94 322.184 1084.41 349.832 1084.41 389.256C1084.41 392.328 1084.15 395.912 1083.64 398.472H912.376C916.728 417.416 946.424 426.376 988.152 426.376C1021.94 426.376 1046.26 421.768 1067.26 413.832L1077.5 434.568C1053.94 448.904 1021.69 455.816 986.872 455.816C925.688 455.816 885.752 433.032 885.752 389.256ZM913.4 375.944H1056.76C1051.9 358.792 1025.78 351.368 989.688 351.368C949.752 351.368 919.288 360.328 913.4 375.944ZM1152.52 393.608V453H1125.64V325H1151.49L1152.26 355.208C1159.43 343.688 1186.05 322.184 1225.22 322.184C1276.42 322.184 1295.36 351.368 1295.36 383.112V392.584H1268.48C1268.48 369.288 1254.4 352.904 1216.77 352.904C1182.72 352.904 1152.52 367.496 1152.52 393.608Z"></path></svg>